ply
format ascii 1.0
element vertex 530
property float x
property float y
property float z
element face 1024
property list uchar int vertex_indices
end_header
40.6266 28.3457 -1.10804
40.0714 30.4443 -1.10804
40.7155 31.1438 -1.10804
42.0257 30.4443 -1.10804
43.4692 28.3457 -1.10804
37.5425 28.3457 14.5117
37.0303 30.4443 14.2938
37.6244 31.1438 14.5466
38.8331 30.4443 15.0609
40.1647 28.3457 15.6274
29.0859 28.3457 27.1468
28.6917 30.4443 26.7527
29.149 31.1438 27.2099
30.0792 30.4443 28.1402
31.1041 28.3457 29.165
16.4508 28.3457 35.6034
16.2329 30.4443 35.0912
16.4857 31.1438 35.6853
16.9999 30.4443 36.894
17.5665 28.3457 38.2256
0.831025 28.3457 38.6876
0.831025 30.4443 38.1324
0.831025 31.1438 38.7764
0.831025 30.4443 40.0866
0.831025 28.3457 41.5301
-15.868 28.3457 35.6034
-15.0262 30.4443 35.0912
-14.9585 31.1438 35.6853
-15.3547 30.4443 36.894
-15.9044 28.3457 38.2256
-28.3832 28.3457 27.1468
-27.4344 30.4443 26.7527
-27.6068 31.1438 27.2099
-28.4322 30.4443 28.1402
-29.4421 28.3457 29.165
-36.2402 28.3457 14.5117
-35.52 30.4443 14.2938
-36.0073 31.1438 14.5466
-37.1767 30.4443 15.0609
-38.5027 28.3457 15.6274
-38.9646 28.3457 -1.10804
-38.4094 30.4443 -1.10804
-39.0534 31.1438 -1.10804
-40.3636 30.4443 -1.10804
-41.8071 28.3457 -1.10804
-35.8804 28.3457 -16.7278
-35.3683 30.4443 -16.5099
-35.9624 31.1438 -16.7627
-37.1711 30.4443 -17.2769
-38.5027 28.3457 -17.8435
-27.4238 28.3457 -29.3629
-27.0297 30.4443 -28.9687
-27.4869 31.1438 -29.426
-28.4172 30.4443 -30.3562
-29.4421 28.3457 -31.3811
-14.7887 28.3457 -37.8195
-14.5708 30.4443 -37.3073
-14.8236 31.1438 -37.9014
-15.3379 30.4443 -39.1101
-15.9044 28.3457 -40.4417
0.831025 28.3457 -40.9036
0.831025 30.4443 -40.3484
0.831025 31.1438 -40.9925
0.831025 30.4443 -42.3027
0.831025 28.3457 -43.7462
16.4508 28.3457 -37.8195
16.2329 30.4443 -37.3073
16.4857 31.1438 -37.9014
16.9999 30.4443 -39.1101
17.5665 28.3457 -40.4417
29.0859 28.3457 -29.3629
28.6917 30.4443 -28.9687
29.149 31.1438 -29.426
30.0792 30.4443 -30.3562
31.1041 28.3457 -31.3811
37.5425 28.3457 -16.7278
37.0303 30.4443 -16.5099
37.6244 31.1438 -16.7627
38.8331 30.4443 -17.2769
40.1647 28.3457 -17.8435
48.6879 17.1865 -1.10804
53.2404 6.22714 -1.10804
56.4605 -4.33246 -1.10804
57.6819 -14.2925 -1.10804
44.979 17.1865 17.6758
49.1787 6.22714 19.4626
52.1492 -4.33246 20.7265
53.2759 -14.2925 21.2059
34.8094 17.1865 32.8703
38.0417 6.22714 36.1026
40.3279 -4.33246 38.3889
41.1951 -14.2925 39.2561
19.6148 17.1865 43.0399
21.4017 6.22714 47.2396
22.6656 -4.33246 50.2101
23.145 -14.2925 51.3369
0.831025 17.1865 46.7488
0.831025 6.22714 51.3013
0.831025 -4.33246 54.5214
0.831025 -14.2925 55.7428
-17.9528 17.1865 43.0399
-19.7397 6.22714 47.2396
-21.0035 -4.33246 50.2101
-21.4829 -14.2925 51.3369
-33.1474 17.1865 32.8703
-36.3796 6.22714 36.1026
-38.6659 -4.33246 38.3889
-39.5331 -14.2925 39.2561
-43.3169 17.1865 17.6758
-47.5166 6.22714 19.4626
-50.4871 -4.33246 20.7265
-51.6139 -14.2925 21.2059
-47.0258 17.1865 -1.10804
-51.5784 6.22714 -1.10804
-54.7984 -4.33246 -1.10804
-56.0198 -14.2925 -1.10804
-43.3169 17.1865 -19.8919
-47.5166 6.22714 -21.6787
-50.4871 -4.33246 -22.9426
-51.6139 -14.2925 -23.422
-33.1474 17.1865 -35.0864
-36.3796 6.22714 -38.3187
-38.6659 -4.33246 -40.6049
-39.5331 -14.2925 -41.4721
-17.9528 17.1865 -45.256
-19.7397 6.22714 -49.4557
-21.0035 -4.33246 -52.4262
-21.4829 -14.2925 -53.5529
0.831025 17.1865 -48.9649
0.831025 6.22714 -53.5174
0.831025 -4.33246 -56.7375
0.831025 -14.2925 -57.9589
19.6148 17.1865 -45.256
21.4017 6.22714 -49.4557
22.6656 -4.33246 -52.4262
23.145 -14.2925 -53.5529
34.8094 17.1865 -35.0864
38.0417 6.22714 -38.3187
40.3279 -4.33246 -40.6049
41.1951 -14.2925 -41.4721
44.979 17.1865 -19.8919
49.1787 6.22714 -21.6787
52.1492 -4.33246 -22.9426
53.2759 -14.2925 -23.422
55.4611 -22.7202 -1.10804
50.5755 -28.9493 -1.10804
45.6899 -33.1798 -1.10804
43.4692 -35.6115 -1.10804
51.2273 -22.7202 20.3343
46.7203 -28.9493 18.4167
42.2133 -33.1798 16.4991
40.1647 -35.6115 15.6274
39.6184 -22.7202 37.6793
36.1496 -28.9493 34.2106
32.6808 -33.1798 30.7418
31.1041 -35.6115 29.165
22.2733 -22.7202 49.2882
20.3557 -28.9493 44.7813
18.4381 -33.1798 40.2743
17.5665 -35.6115 38.2256
0.831025 -22.7202 53.5221
0.831025 -28.9493 48.6365
0.831025 -33.1798 43.7508
0.831025 -35.6115 41.5301
-20.6113 -22.7202 49.2882
-18.6937 -28.9493 44.7813
-16.7761 -33.1798 40.2743
-15.9044 -35.6115 38.2256
-37.9564 -22.7202 37.6793
-34.4876 -28.9493 34.2106
-31.0188 -33.1798 30.7418
-29.4421 -35.6115 29.165
-49.5653 -22.7202 20.3343
-45.0583 -28.9493 18.4167
-40.5513 -33.1798 16.4991
-38.5027 -35.6115 15.6274
-53.7991 -22.7202 -1.10804
-48.9135 -28.9493 -1.10804
-44.0279 -33.1798 -1.10804
-41.8071 -35.6115 -1.10804
-49.5653 -22.7202 -22.5504
-45.0583 -28.9493 -20.6327
-40.5513 -33.1798 -18.7151
-38.5027 -35.6115 -17.8435
-37.9564 -22.7202 -39.8954
-34.4876 -28.9493 -36.4266
-31.0188 -33.1798 -32.9578
-29.4421 -35.6115 -31.3811
-20.6113 -22.7202 -51.5043
-18.6937 -28.9493 -46.9973
-16.7761 -33.1798 -42.4903
-15.9044 -35.6115 -40.4417
0.831025 -22.7202 -55.7382
0.831025 -28.9493 -50.8525
0.831025 -33.1798 -45.9669
0.831025 -35.6115 -43.7462
22.2733 -22.7202 -51.5043
20.3557 -28.9493 -46.9973
18.4381 -33.1798 -42.4903
17.5665 -35.6115 -40.4417
39.6184 -22.7202 -39.8954
36.1496 -28.9493 -36.4266
32.6808 -33.1798 -32.9578
31.1041 -35.6115 -31.3811
51.2273 -22.7202 -22.5504
46.7203 -28.9493 -20.6327
42.2133 -33.1798 -18.7151
40.1647 -35.6115 -17.8435
42.5031 -37.1772 -1.10804
37.3399 -38.5429 -1.10804
24.5818 -39.5089 -1.10804
0.831025 -39.8754 -1.10804
39.2736 -37.1772 15.2483
34.5105 -38.5429 13.2217
22.7411 -39.5089 8.21414
30.4182 -37.1772 28.4792
26.7523 -38.5429 24.8133
17.6941 -39.5089 15.755
17.1873 -37.1772 37.3345
15.1608 -38.5429 32.5714
10.1532 -39.5089 20.8021
0.831025 -37.1772 40.5641
0.831025 -38.5429 35.4009
0.831025 -39.5089 22.6427
-15.5253 -37.1772 37.3345
-13.4987 -38.5429 32.5714
-8.49115 -39.5089 20.8021
-28.7562 -37.1772 28.4792
-25.0903 -38.5429 24.8133
-16.032 -39.5089 15.755
-37.6115 -37.1772 15.2483
-32.8484 -38.5429 13.2217
-21.0791 -39.5089 8.21414
-40.8411 -37.1772 -1.10804
-35.6779 -38.5429 -1.10804
-22.9198 -39.5089 -1.10804
-37.6115 -37.1772 -17.4643
-32.8484 -38.5429 -15.4378
-21.0791 -39.5089 -10.4302
-28.7562 -37.1772 -30.6952
-25.0903 -38.5429 -27.0294
-16.032 -39.5089 -17.9711
-15.5253 -37.1772 -39.5506
-13.4987 -38.5429 -34.7875
-8.49115 -39.5089 -23.0181
0.831025 -37.1772 -42.7802
0.831025 -38.5429 -37.6169
0.831025 -39.5089 -24.8588
17.1873 -37.1772 -39.5506
15.1608 -38.5429 -34.7875
10.1532 -39.5089 -23.0181
30.4182 -37.1772 -30.6952
26.7523 -38.5429 -27.0294
17.6941 -39.5089 -17.9711
39.2736 -37.1772 -17.4643
34.5105 -38.5429 -15.4378
22.7411 -39.5089 -10.4302
-44.6497 17.6861 -1.10804
-57.9297 17.5862 -1.10804
-67.7453 16.8867 -1.10804
-73.8301 14.9879 -1.10804
-75.9176 11.2904 -1.10804
-44.2055 18.6855 3.68876
-58.3252 18.5699 3.68876
-68.6891 17.7611 3.68876
-75.0724 15.5657 3.68876
-77.2501 11.2904 3.68876
-43.2284 20.884 5.28769
-59.1955 20.7341 5.28769
-70.7655 19.6848 5.28769
-77.8053 16.8367 5.28769
-80.1814 11.2904 5.28769
-42.2513 23.0825 3.68876
-60.0657 22.8983 3.68876
-72.8419 21.6085 3.68876
-80.5381 18.1077 3.68876
-83.1128 11.2904 3.68876
-41.8071 24.0819 -1.10804
-60.4613 23.882 -1.10804
-73.7857 22.4829 -1.10804
-81.7804 18.6855 -1.10804
-84.4453 11.2904 -1.10804
-42.2513 23.0825 -5.90483
-60.0657 22.8983 -5.90483
-72.8419 21.6085 -5.90483
-80.5381 18.1077 -5.90483
-83.1128 11.2904 -5.90483
-43.2284 20.884 -7.50376
-59.1955 20.7341 -7.50376
-70.7655 19.6848 -7.50376
-77.8053 16.8367 -7.50376
-80.1814 11.2904 -7.50376
-44.2055 18.6855 -5.90483
-58.3252 18.5699 -5.90483
-68.6891 17.7611 -5.90483
-75.0724 15.5657 -5.90483
-77.2501 11.2904 -5.90483
-74.8073 5.4943 -1.10804
-71.2985 -1.50103 -1.10804
-65.1248 -8.49634 -1.10804
-56.0198 -14.2925 -1.10804
-76.0183 4.93477 3.68876
-72.159 -2.35462 3.68876
-65.4267 -9.55033 3.68876
-55.5757 -15.6249 3.68876
-78.6824 3.70383 5.28769
-74.0522 -4.23253 5.28769
-66.0909 -11.8691 5.28769
-54.5986 -18.5563 5.28769
-81.3466 2.47288 3.68876
-75.9454 -6.11044 3.68876
-66.755 -14.1878 3.68876
-53.6214 -21.4877 3.68876
-82.5576 1.91336 -1.10804
-76.8059 -6.96404 -1.10804
-67.0569 -15.2418 -1.10804
-53.1773 -22.8201 -1.10804
-81.3466 2.47288 -5.90483
-75.9454 -6.11044 -5.90483
-66.755 -14.1878 -5.90483
-53.6214 -21.4877 -5.90483
-78.6824 3.70383 -7.50376
-74.0522 -4.23253 -7.50376
-66.0909 -11.8691 -7.50376
-54.5986 -18.5563 -7.50376
-76.0183 4.93477 -5.90483
-72.159 -2.35462 -5.90483
-65.4267 -9.55033 -5.90483
-55.5757 -15.6249 -5.90483
49.1543 0.630882 -1.10804
62.7896 3.76212 -1.10804
68.6967 11.2904 -1.10804
71.939 20.4176 -1.10804
77.5797 28.3457 -1.10804
49.1543 -3.03333 9.4449
63.8305 1.04519 8.42059
70.0292 9.70814 6.1671
73.5629 19.8451 3.91361
80.2446 28.3457 2.88929
49.1543 -11.0946 12.9626
66.1207 -4.93206 11.5968
72.9605 6.22714 8.59214
77.1355 18.5855 5.58749
86.1073 28.3457 4.22173
49.1543 -19.1559 9.4449
68.4108 -10.9093 8.42059
75.8919 2.74614 6.1671
80.7081 17.326 3.91361
91.97 28.3457 2.88929
49.1543 -22.8201 -1.10804
69.4518 -13.6262 -1.10804
77.2244 1.16386 -1.10804
82.3321 16.7534 -1.10804
94.6349 28.3457 -1.10804
49.1543 -19.1559 -11.661
68.4108 -10.9093 -10.6367
75.8919 2.74614 -8.38317
80.7081 17.326 -6.12968
91.97 28.3457 -5.10536
49.1543 -11.0946 -15.1786
66.1207 -4.93206 -13.8129
72.9605 6.22714 -10.8082
77.1355 18.5855 -7.80356
86.1073 28.3457 -6.4378
49.1543 -3.03333 -11.661
63.8305 1.04519 -10.6367
70.0292 9.70814 -8.38317
73.5629 19.8451 -6.12968
80.2446 28.3457 -5.10536
79.6227 29.5449 -1.10804
81.1329 29.9446 -1.10804
81.577 29.5449 -1.10804
80.4222 28.3457 -1.10804
82.4767 29.6034 2.63946
83.8116 30.0383 2.08983
83.8515 29.6268 1.54019
82.1988 28.3457 1.29036
88.7555 29.7322 3.88862
89.7049 30.2444 3.15578
88.8555 29.8072 2.42294
86.1073 28.3457 2.08983
95.0343 29.8611 2.63946
95.5982 30.4505 2.08983
93.8594 29.9875 1.54019
90.0158 28.3457 1.29036
97.8883 29.9196 -1.10804
98.2769 30.5442 -1.10804
96.1339 30.0695 -1.10804
91.7924 28.3457 -1.10804
95.0343 29.8611 -4.85553
95.5982 30.4505 -4.3059
93.8594 29.9875 -3.75626
90.0158 28.3457 -3.50643
88.7555 29.7322 -6.10469
89.7049 30.2444 -5.37185
88.8555 29.8072 -4.63901
86.1073 28.3457 -4.3059
82.4767 29.6034 -4.85553
83.8116 30.0383 -4.3059
83.8515 29.6268 -3.75626
82.1988 28.3457 -3.50643
0.831025 49.6647 -1.10804
10.5134 48.2657 -1.10804
10.0693 44.868 -1.10804
6.42728 40.6708 -1.10804
6.51611 36.8733 -1.10804
9.76642 48.2657 2.70243
9.35632 44.868 2.52698
5.9947 40.6708 1.09187
6.07552 36.8733 1.12336
7.71453 48.2657 5.77547
7.39819 44.868 5.45913
4.80736 40.6708 2.8683
4.86744 36.8733 2.92838
4.64149 48.2657 7.82736
4.46604 44.868 7.41726
3.03093 40.6708 4.05564
3.06242 36.8733 4.13646
0.831025 48.2657 8.57438
0.831025 44.868 8.13023
0.831025 40.6708 4.48822
0.831025 36.8733 4.57705
-2.97944 48.2657 7.82736
-2.80399 44.868 7.41726
-1.36888 40.6708 4.05564
-1.40037 36.8733 4.13646
-6.05248 48.2657 5.77547
-5.73614 44.868 5.45913
-3.14531 40.6708 2.8683
-3.20539 36.8733 2.92838
-8.10437 48.2657 2.70243
-7.69427 44.868 2.52698
-4.33265 40.6708 1.09187
-4.41347 36.8733 1.12336
-8.85139 48.2657 -1.10804
-8.40724 44.868 -1.10804
-4.76523 40.6708 -1.10804
-4.85406 36.8733 -1.10804
-8.10437 48.2657 -4.9185
-7.69427 44.868 -4.74305
-4.33265 40.6708 -3.30794
-4.41347 36.8733 -3.33943
-6.05248 48.2657 -7.99154
-5.73614 44.868 -7.6752
-3.14531 40.6708 -5.08437
-3.20539 36.8733 -5.14445
-2.97944 48.2657 -10.0434
-2.80399 44.868 -9.63333
-1.36888 40.6708 -6.27171
-1.40037 36.8733 -6.35253
0.831025 48.2657 -10.7904
0.831025 44.868 -10.3463
0.831025 40.6708 -6.70429
0.831025 36.8733 -6.79312
4.64149 48.2657 -10.0434
4.46604 44.868 -9.63333
3.03093 40.6708 -6.27171
3.06242 36.8733 -6.35253
7.71453 48.2657 -7.99154
7.39819 44.868 -7.6752
4.80736 40.6708 -5.08437
4.86744 36.8733 -5.14445
9.76642 48.2657 -4.9185
9.35632 44.868 -4.74305
5.9947 40.6708 -3.30794
6.07552 36.8733 -3.33943
13.8001 34.3417 -1.10804
24.282 32.6095 -1.10804
33.6979 30.8773 -1.10804
37.7841 28.3457 -1.10804
12.795 34.3417 3.98234
22.4646 32.6095 8.09647
31.1507 30.8773 11.7922
34.9202 28.3457 13.396
10.0391 34.3417 8.10003
17.4812 32.6095 15.5422
24.1665 30.8773 22.2275
27.0677 28.3457 25.1286
5.9214 34.3417 10.856
10.0355 32.6095 20.5255
13.7313 30.8773 29.2117
15.3351 28.3457 32.9812
0.831025 34.3417 11.8611
0.831025 32.6095 22.3429
0.831025 30.8773 31.7589
0.831025 28.3457 35.845
-4.25935 34.3417 10.856
-8.37348 32.6095 20.5255
-12.0692 30.8773 29.2117
-13.673 28.3457 32.9812
-8.37704 34.3417 8.10003
-15.8192 32.6095 15.5422
-22.5045 30.8773 22.2275
-25.4056 28.3457 25.1286
-11.133 34.3417 3.98234
-20.8025 32.6095 8.09647
-29.4887 30.8773 11.7922
-33.2582 28.3457 13.396
-12.1381 34.3417 -1.10804
-22.62 32.6095 -1.10804
-32.0359 30.8773 -1.10804
-36.122 28.3457 -1.10804
-11.133 34.3417 -6.19841
-20.8025 32.6095 -10.3125
-29.4887 30.8773 -14.0083
-33.2582 28.3457 -15.6121
-8.37704 34.3417 -10.3161
-15.8192 32.6095 -17.7582
-22.5045 30.8773 -24.4435
-25.4056 28.3457 -27.3447
-4.25935 34.3417 -13.072
-8.37348 32.6095 -22.7416
-12.0692 30.8773 -31.4277
-13.673 28.3457 -35.1972
0.831025 34.3417 -14.0771
0.831025 32.6095 -24.559
0.831025 30.8773 -33.9749
0.831025 28.3457 -38.0611
5.9214 34.3417 -13.072
10.0355 32.6095 -22.7416
13.7313 30.8773 -31.4277
15.3351 28.3457 -35.1972
10.0391 34.3417 -10.3161
17.4812 32.6095 -17.7582
24.1665 30.8773 -24.4435
27.0677 28.3457 -27.3447
12.795 34.3417 -6.19841
22.4646 32.6095 -10.3125
31.1507 30.8773 -14.0083
34.9202 28.3457 -15.6121
3 6 0 5
3 0 6 1
3 7 1 6
3 1 7 2
3 8 2 7
3 2 8 3
3 9 3 8
3 3 9 4
3 11 5 10
3 5 11 6
3 12 6 11
3 6 12 7
3 13 7 12
3 7 13 8
3 14 8 13
3 8 14 9
3 16 10 15
3 10 16 11
3 17 11 16
3 11 17 12
3 18 12 17
3 12 18 13
3 19 13 18
3 13 19 14
3 21 15 20
3 15 21 16
3 22 16 21
3 16 22 17
3 23 17 22
3 17 23 18
3 24 18 23
3 18 24 19
3 26 20 25
3 20 26 21
3 27 21 26
3 21 27 22
3 28 22 27
3 22 28 23
3 29 23 28
3 23 29 24
3 31 25 30
3 25 31 26
3 32 26 31
3 26 32 27
3 33 27 32
3 27 33 28
3 34 28 33
3 28 34 29
3 36 30 35
3 30 36 31
3 37 31 36
3 31 37 32
3 38 32 37
3 32 38 33
3 39 33 38
3 33 39 34
3 41 35 40
3 35 41 36
3 42 36 41
3 36 42 37
3 43 37 42
3 37 43 38
3 44 38 43
3 38 44 39
3 46 40 45
3 40 46 41
3 47 41 46
3 41 47 42
3 48 42 47
3 42 48 43
3 49 43 48
3 43 49 44
3 51 45 50
3 45 51 46
3 52 46 51
3 46 52 47
3 53 47 52
3 47 53 48
3 54 48 53
3 48 54 49
3 56 50 55
3 50 56 51
3 57 51 56
3 51 57 52
3 58 52 57
3 52 58 53
3 59 53 58
3 53 59 54
3 61 55 60
3 55 61 56
3 62 56 61
3 56 62 57
3 63 57 62
3 57 63 58
3 64 58 63
3 58 64 59
3 66 60 65
3 60 66 61
3 67 61 66
3 61 67 62
3 68 62 67
3 62 68 63
3 69 63 68
3 63 69 64
3 71 65 70
3 65 71 66
3 72 66 71
3 66 72 67
3 73 67 72
3 67 73 68
3 74 68 73
3 68 74 69
3 76 70 75
3 70 76 71
3 77 71 76
3 71 77 72
3 78 72 77
3 72 78 73
3 79 73 78
3 73 79 74
3 1 75 0
3 75 1 76
3 2 76 1
3 76 2 77
3 3 77 2
3 77 3 78
3 4 78 3
3 78 4 79
3 84 4 9
3 4 84 80
3 85 80 84
3 80 85 81
3 86 81 85
3 81 86 82
3 87 82 86
3 82 87 83
3 88 9 14
3 9 88 84
3 89 84 88
3 84 89 85
3 90 85 89
3 85 90 86
3 91 86 90
3 86 91 87
3 92 14 19
3 14 92 88
3 93 88 92
3 88 93 89
3 94 89 93
3 89 94 90
3 95 90 94
3 90 95 91
3 96 19 24
3 19 96 92
3 97 92 96
3 92 97 93
3 98 93 97
3 93 98 94
3 99 94 98
3 94 99 95
3 100 24 29
3 24 100 96
3 101 96 100
3 96 101 97
3 102 97 101
3 97 102 98
3 103 98 102
3 98 103 99
3 104 29 34
3 29 104 100
3 105 100 104
3 100 105 101
3 106 101 105
3 101 106 102
3 107 102 106
3 102 107 103
3 108 34 39
3 34 108 104
3 109 104 108
3 104 109 105
3 110 105 109
3 105 110 106
3 111 106 110
3 106 111 107
3 112 39 44
3 39 112 108
3 113 108 112
3 108 113 109
3 114 109 113
3 109 114 110
3 115 110 114
3 110 115 111
3 116 44 49
3 44 116 112
3 117 112 116
3 112 117 113
3 118 113 117
3 113 118 114
3 119 114 118
3 114 119 115
3 120 49 54
3 49 120 116
3 121 116 120
3 116 121 117
3 122 117 121
3 117 122 118
3 123 118 122
3 118 123 119
3 124 54 59
3 54 124 120
3 125 120 124
3 120 125 121
3 126 121 125
3 121 126 122
3 127 122 126
3 122 127 123
3 128 59 64
3 59 128 124
3 129 124 128
3 124 129 125
3 130 125 129
3 125 130 126
3 131 126 130
3 126 131 127
3 132 64 69
3 64 132 128
3 133 128 132
3 128 133 129
3 134 129 133
3 129 134 130
3 135 130 134
3 130 135 131
3 136 69 74
3 69 136 132
3 137 132 136
3 132 137 133
3 138 133 137
3 133 138 134
3 139 134 138
3 134 139 135
3 140 74 79
3 74 140 136
3 141 136 140
3 136 141 137
3 142 137 141
3 137 142 138
3 143 138 142
3 138 143 139
3 80 79 4
3 79 80 140
3 81 140 80
3 140 81 141
3 82 141 81
3 141 82 142
3 83 142 82
3 142 83 143
3 148 83 87
3 83 148 144
3 149 144 148
3 144 149 145
3 150 145 149
3 145 150 146
3 151 146 150
3 146 151 147
3 152 87 91
3 87 152 148
3 153 148 152
3 148 153 149
3 154 149 153
3 149 154 150
3 155 150 154
3 150 155 151
3 156 91 95
3 91 156 152
3 157 152 156
3 152 157 153
3 158 153 157
3 153 158 154
3 159 154 158
3 154 159 155
3 160 95 99
3 95 160 156
3 161 156 160
3 156 161 157
3 162 157 161
3 157 162 158
3 163 158 162
3 158 163 159
3 164 99 103
3 99 164 160
3 165 160 164
3 160 165 161
3 166 161 165
3 161 166 162
3 167 162 166
3 162 167 163
3 168 103 107
3 103 168 164
3 169 164 168
3 164 169 165
3 170 165 169
3 165 170 166
3 171 166 170
3 166 171 167
3 172 107 111
3 107 172 168
3 173 168 172
3 168 173 169
3 174 169 173
3 169 174 170
3 175 170 174
3 170 175 171
3 176 111 115
3 111 176 172
3 177 172 176
3 172 177 173
3 178 173 177
3 173 178 174
3 179 174 178
3 174 179 175
3 180 115 119
3 115 180 176
3 181 176 180
3 176 181 177
3 182 177 181
3 177 182 178
3 183 178 182
3 178 183 179
3 184 119 123
3 119 184 180
3 185 180 184
3 180 185 181
3 186 181 185
3 181 186 182
3 187 182 186
3 182 187 183
3 188 123 127
3 123 188 184
3 189 184 188
3 184 189 185
3 190 185 189
3 185 190 186
3 191 186 190
3 186 191 187
3 192 127 131
3 127 192 188
3 193 188 192
3 188 193 189
3 194 189 193
3 189 194 190
3 195 190 194
3 190 195 191
3 196 131 135
3 131 196 192
3 197 192 196
3 192 197 193
3 198 193 197
3 193 198 194
3 199 194 198
3 194 199 195
3 200 135 139
3 135 200 196
3 201 196 200
3 196 201 197
3 202 197 201
3 197 202 198
3 203 198 202
3 198 203 199
3 204 139 143
3 139 204 200
3 205 200 204
3 200 205 201
3 206 201 205
3 201 206 202
3 207 202 206
3 202 207 203
3 144 143 83
3 143 144 204
3 145 204 144
3 204 145 205
3 146 205 145
3 205 146 206
3 147 206 146
3 206 147 207
3 212 147 151
3 147 212 208
3 213 208 212
3 208 213 209
3 214 209 213
3 209 214 210
3 211 210 214
3 210 211 211
3 215 151 155
3 151 215 212
3 216 212 215
3 212 216 213
3 217 213 216
3 213 217 214
3 211 214 217
3 214 211 211
3 218 155 159
3 155 218 215
3 219 215 218
3 215 219 216
3 220 216 219
3 216 220 217
3 211 217 220
3 217 211 211
3 221 159 163
3 159 221 218
3 222 218 221
3 218 222 219
3 223 219 222
3 219 223 220
3 211 220 223
3 220 211 211
3 224 163 167
3 163 224 221
3 225 221 224
3 221 225 222
3 226 222 225
3 222 226 223
3 211 223 226
3 223 211 211
3 227 167 171
3 167 227 224
3 228 224 227
3 224 228 225
3 229 225 228
3 225 229 226
3 211 226 229
3 226 211 211
3 230 171 175
3 171 230 227
3 231 227 230
3 227 231 228
3 232 228 231
3 228 232 229
3 211 229 232
3 229 211 211
3 233 175 179
3 175 233 230
3 234 230 233
3 230 234 231
3 235 231 234
3 231 235 232
3 211 232 235
3 232 211 211
3 236 179 183
3 179 236 233
3 237 233 236
3 233 237 234
3 238 234 237
3 234 238 235
3 211 235 238
3 235 211 211
3 239 183 187
3 183 239 236
3 240 236 239
3 236 240 237
3 241 237 240
3 237 241 238
3 211 238 241
3 238 211 211
3 242 187 191
3 187 242 239
3 243 239 242
3 239 243 240
3 244 240 243
3 240 244 241
3 211 241 244
3 241 211 211
3 245 191 195
3 191 245 242
3 246 242 245
3 242 246 243
3 247 243 246
3 243 247 244
3 211 244 247
3 244 211 211
3 248 195 199
3 195 248 245
3 249 245 248
3 245 249 246
3 250 246 249
3 246 250 247
3 211 247 250
3 247 211 211
3 251 199 203
3 199 251 248
3 252 248 251
3 248 252 249
3 253 249 252
3 249 253 250
3 211 250 253
3 250 211 211
3 254 203 207
3 203 254 251
3 255 251 254
3 251 255 252
3 256 252 255
3 252 256 253
3 211 253 256
3 253 211 211
3 208 207 147
3 207 208 254
3 209 254 208
3 254 209 255
3 210 255 209
3 255 210 256
3 211 256 210
3 256 211 211
3 263 257 262
3 257 263 258
3 264 258 263
3 258 264 259
3 265 259 264
3 259 265 260
3 266 260 265
3 260 266 261
3 268 262 267
3 262 268 263
3 269 263 268
3 263 269 264
3 270 264 269
3 264 270 265
3 271 265 270
3 265 271 266
3 273 267 272
3 267 273 268
3 274 268 273
3 268 274 269
3 275 269 274
3 269 275 270
3 276 270 275
3 270 276 271
3 278 272 277
3 272 278 273
3 279 273 278
3 273 279 274
3 280 274 279
3 274 280 275
3 281 275 280
3 275 281 276
3 283 277 282
3 277 283 278
3 284 278 283
3 278 284 279
3 285 279 284
3 279 285 280
3 286 280 285
3 280 286 281
3 288 282 287
3 282 288 283
3 289 283 288
3 283 289 284
3 290 284 289
3 284 290 285
3 291 285 290
3 285 291 286
3 293 287 292
3 287 293 288
3 294 288 293
3 288 294 289
3 295 289 294
3 289 295 290
3 296 290 295
3 290 296 291
3 258 292 257
3 292 258 293
3 259 293 258
3 293 259 294
3 260 294 259
3 294 260 295
3 261 295 260
3 295 261 296
3 301 261 266
3 261 301 297
3 302 297 301
3 297 302 298
3 303 298 302
3 298 303 299
3 304 299 303
3 299 304 300
3 305 266 271
3 266 305 301
3 306 301 305
3 301 306 302
3 307 302 306
3 302 307 303
3 308 303 307
3 303 308 304
3 309 271 276
3 271 309 305
3 310 305 309
3 305 310 306
3 311 306 310
3 306 311 307
3 312 307 311
3 307 312 308
3 313 276 281
3 276 313 309
3 314 309 313
3 309 314 310
3 315 310 314
3 310 315 311
3 316 311 315
3 311 316 312
3 317 281 286
3 281 317 313
3 318 313 317
3 313 318 314
3 319 314 318
3 314 319 315
3 320 315 319
3 315 320 316
3 321 286 291
3 286 321 317
3 322 317 321
3 317 322 318
3 323 318 322
3 318 323 319
3 324 319 323
3 319 324 320
3 325 291 296
3 291 325 321
3 326 321 325
3 321 326 322
3 327 322 326
3 322 327 323
3 328 323 327
3 323 328 324
3 297 296 261
3 296 297 325
3 298 325 297
3 325 298 326
3 299 326 298
3 326 299 327
3 300 327 299
3 327 300 328
3 335 329 334
3 329 335 330
3 336 330 335
3 330 336 331
3 337 331 336
3 331 337 332
3 338 332 337
3 332 338 333
3 340 334 339
3 334 340 335
3 341 335 340
3 335 341 336
3 342 336 341
3 336 342 337
3 343 337 342
3 337 343 338
3 345 339 344
3 339 345 340
3 346 340 345
3 340 346 341
3 347 341 346
3 341 347 342
3 348 342 347
3 342 348 343
3 350 344 349
3 344 350 345
3 351 345 350
3 345 351 346
3 352 346 351
3 346 352 347
3 353 347 352
3 347 353 348
3 355 349 354
3 349 355 350
3 356 350 355
3 350 356 351
3 357 351 356
3 351 357 352
3 358 352 357
3 352 358 353
3 360 354 359
3 354 360 355
3 361 355 360
3 355 361 356
3 362 356 361
3 356 362 357
3 363 357 362
3 357 363 358
3 365 359 364
3 359 365 360
3 366 360 365
3 360 366 361
3 367 361 366
3 361 367 362
3 368 362 367
3 362 368 363
3 330 364 329
3 364 330 365
3 331 365 330
3 365 331 366
3 332 366 331
3 366 332 367
3 333 367 332
3 367 333 368
3 373 333 338
3 333 373 369
3 374 369 373
3 369 374 370
3 375 370 374
3 370 375 371
3 376 371 375
3 371 376 372
3 377 338 343
3 338 377 373
3 378 373 377
3 373 378 374
3 379 374 378
3 374 379 375
3 380 375 379
3 375 380 376
3 381 343 348
3 343 381 377
3 382 377 381
3 377 382 378
3 383 378 382
3 378 383 379
3 384 379 383
3 379 384 380
3 385 348 353
3 348 385 381
3 386 381 385
3 381 386 382
3 387 382 386
3 382 387 383
3 388 383 387
3 383 388 384
3 389 353 358
3 353 389 385
3 390 385 389
3 385 390 386
3 391 386 390
3 386 391 387
3 392 387 391
3 387 392 388
3 393 358 363
3 358 393 389
3 394 389 393
3 389 394 390
3 395 390 394
3 390 395 391
3 396 391 395
3 391 396 392
3 397 363 368
3 363 397 393
3 398 393 397
3 393 398 394
3 399 394 398
3 394 399 395
3 400 395 399
3 395 400 396
3 369 368 333
3 368 369 397
3 370 397 369
3 397 370 398
3 371 398 370
3 398 371 399
3 372 399 371
3 399 372 400
3 406 401 401
3 401 406 402
3 407 402 406
3 402 407 403
3 408 403 407
3 403 408 404
3 409 404 408
3 404 409 405
3 410 401 401
3 401 410 406
3 411 406 410
3 406 411 407
3 412 407 411
3 407 412 408
3 413 408 412
3 408 413 409
3 414 401 401
3 401 414 410
3 415 410 414
3 410 415 411
3 416 411 415
3 411 416 412
3 417 412 416
3 412 417 413
3 418 401 401
3 401 418 414
3 419 414 418
3 414 419 415
3 420 415 419
3 415 420 416
3 421 416 420
3 416 421 417
3 422 401 401
3 401 422 418
3 423 418 422
3 418 423 419
3 424 419 423
3 419 424 420
3 425 420 424
3 420 425 421
3 426 401 401
3 401 426 422
3 427 422 426
3 422 427 423
3 428 423 427
3 423 428 424
3 429 424 428
3 424 429 425
3 430 401 401
3 401 430 426
3 431 426 430
3 426 431 427
3 432 427 431
3 427 432 428
3 433 428 432
3 428 433 429
3 434 401 401
3 401 434 430
3 435 430 434
3 430 435 431
3 436 431 435
3 431 436 432
3 437 432 436
3 432 437 433
3 438 401 401
3 401 438 434
3 439 434 438
3 434 439 435
3 440 435 439
3 435 440 436
3 441 436 440
3 436 441 437
3 442 401 401
3 401 442 438
3 443 438 442
3 438 443 439
3 444 439 443
3 439 444 440
3 445 440 444
3 440 445 441
3 446 401 401
3 401 446 442
3 447 442 446
3 442 447 443
3 448 443 447
3 443 448 444
3 449 444 448
3 444 449 445
3 450 401 401
3 401 450 446
3 451 446 450
3 446 451 447
3 452 447 451
3 447 452 448
3 453 448 452
3 448 453 449
3 454 401 401
3 401 454 450
3 455 450 454
3 450 455 451
3 456 451 455
3 451 456 452
3 457 452 456
3 452 457 453
3 458 401 401
3 401 458 454
3 459 454 458
3 454 459 455
3 460 455 459
3 455 460 456
3 461 456 460
3 456 461 457
3 462 401 401
3 401 462 458
3 463 458 462
3 458 463 459
3 464 459 463
3 459 464 460
3 465 460 464
3 460 465 461
3 402 401 401
3 401 402 462
3 403 462 402
3 462 403 463
3 404 463 403
3 463 404 464
3 405 464 404
3 464 405 465
3 470 405 409
3 405 470 466
3 471 466 470
3 466 471 467
3 472 467 471
3 467 472 468
3 473 468 472
3 468 473 469
3 474 409 413
3 409 474 470
3 475 470 474
3 470 475 471
3 476 471 475
3 471 476 472
3 477 472 476
3 472 477 473
3 478 413 417
3 413 478 474
3 479 474 478
3 474 479 475
3 480 475 479
3 475 480 476
3 481 476 480
3 476 481 477
3 482 417 421
3 417 482 478
3 483 478 482
3 478 483 479
3 484 479 483
3 479 484 480
3 485 480 484
3 480 485 481
3 486 421 425
3 421 486 482
3 487 482 486
3 482 487 483
3 488 483 487
3 483 488 484
3 489 484 488
3 484 489 485
3 490 425 429
3 425 490 486
3 491 486 490
3 486 491 487
3 492 487 491
3 487 492 488
3 493 488 492
3 488 493 489
3 494 429 433
3 429 494 490
3 495 490 494
3 490 495 491
3 496 491 495
3 491 496 492
3 497 492 496
3 492 497 493
3 498 433 437
3 433 498 494
3 499 494 498
3 494 499 495
3 500 495 499
3 495 500 496
3 501 496 500
3 496 501 497
3 502 437 441
3 437 502 498
3 503 498 502
3 498 503 499
3 504 499 503
3 499 504 500
3 505 500 504
3 500 505 501
3 506 441 445
3 441 506 502
3 507 502 506
3 502 507 503
3 508 503 507
3 503 508 504
3 509 504 508
3 504 509 505
3 510 445 449
3 445 510 506
3 511 506 510
3 506 511 507
3 512 507 511
3 507 512 508
3 513 508 512
3 508 513 509
3 514 449 453
3 449 514 510
3 515 510 514
3 510 515 511
3 516 511 515
3 511 516 512
3 517 512 516
3 512 517 513
3 518 453 457
3 453 518 514
3 519 514 518
3 514 519 515
3 520 515 519
3 515 520 516
3 521 516 520
3 516 521 517
3 522 457 461
3 457 522 518
3 523 518 522
3 518 523 519
3 524 519 523
3 519 524 520
3 525 520 524
3 520 525 521
3 526 461 465
3 461 526 522
3 527 522 526
3 522 527 523
3 528 523 527
3 523 528 524
3 529 524 528
3 524 529 525
3 466 465 405
3 465 466 526
3 467 526 466
3 526 467 527
3 468 527 467
3 527 468 528
3 469 528 468
3 528 469 529
